# xmcd
#
# Track frame offsets:
#	150
#	20018
#	35382
#	55385
#	68500
#	80103
#
# Disc length: 1291 seconds
#
# Revision: 1
# Processed by: cddbd v1.5.2PL0 Copyright (c) Steve Scherf et al.
# Submitted via: audiograbber 1.83.01
#
DISCID=4a050906
DTITLE=Old Bull - Old Bull E.P.
DYEAR=2005
DGENRE=Country Rock
TTITLE0=End Of Days
TTITLE1=Things I Used To Be
TTITLE2=Soldier In The War
TTITLE3=Hummer Song
TTITLE4=Drunk Woman Blues
TTITLE5=Dead Blind Love
EXTD=
EXTT0=
EXTT1=
EXTT2=
EXTT3=
EXTT4=
EXTT5=
PLAYORDER=
